The Thin Red Line*1998*[BluRay][720p][ENG, POL]

General information:
Country: USA
Release: 23 December 1998
Genre: Action, Drama, War 
Director: Terrence Malick
Screenplay: Terrence Malick, James Jones (novel)
Original Music: Hans Zimmer
Cinematography by: John Toll
Duration: 2h 50mn
Language: English, Polish
Subtitles: English, Polish 
Rating: 7.9/10 - 16202 votes 

Cast:
Kirk Acevedo  ...  Pvt. Tella  
Sean Penn  ...  1st Sgt. Edward Welsh  
Penelope Allen  ...  Witt's Mother (as Penny Allen)  
Adrien Brody  ...  Cpl. Fife  
James Caviezel  ...  Pvt. Witt (as Jim Caviezel)  
Benjamin Green  ...  Melanesian Villager (as Benjamin)  
Simon Billig  ...  Lt. Col. Billig  
Ben Chaplin  ...  Pvt. Bell  
Mark Boone Junior  ...  Pvt. Peale  
George Clooney  ...  Capt. Charles Bosche  
John Cusack  ...  Capt. John Gaff  
Norman Patrick Brown  ...  Pvt. Henry  
Woody Harrelson  ...  Sgt. Keck  
Elias Koteas  ...  Capt. James 'Bugger' Staros  
Nick Nolte  ...  Lt. Col. Gordon Tall  

Plot:
Director Terrence Malick's adaptation of James Jones' autobiographical 1962 novel, focusing on the conflict at Guadalcanal during the second World War.

Specifications:
General
Format                           : Matroska
Overall bit rate                 : 8 106 Kbps

Video
Format                           : AVC
Format/Info                      : Advanced Video Codec
Format profile                   : High@L4.1
Format settings, CABAC           : Yes
Format settings, ReFrames        : 8 frames
Muxing mode                      : Container profile=Unknown@4.1
Codec ID                         : V_MPEG4/ISO/AVC
Bit rate                         : 5 960 Kbps
Width                            : 1 280 pixels
Height                           : 546 pixels
Display aspect ratio             : 2.35:1
Frame rate                       : 23.976 fps

Audio 1
Format                           : DTS
Format/Info                      : Digital Theater Systems
Codec ID                         : A_DTS
Bit rate mode                    : Constant
Bit rate                         : 1 510 Kbps
Channel(s)                       : 6 channels
Channel positions                : Front: L C R, Side: L R, LFE
Sampling rate                    : 48.0 KHz
Bit depth                        : 24 bits
Stream size                      : 1.80 GiB (19%)
Title                            : English

Audio 2
Format                           : AC-3
Format/Info                      : Audio Coding 3
Mode extension                   : CM (complete main)
Codec ID                         : A_AC3
Bit rate mode                    : Constant
Bit rate                         : 640 Kbps
Channel(s)                       : 6 channels
Channel positions                : Front: L C R, Side: L R, LFE
Sampling rate                    : 48.0 KHz
Stream size                      : 782 MiB (8%)
Title                            : Polish
Language                         : Polish

Text 1
Format                           : UTF-8
Codec ID                         : S_TEXT/UTF8
Codec ID/Info                    : UTF-8 Plain Text
Title                            : English

Text 2
Format                           : UTF-8
Codec ID                         : S_TEXT/UTF8
Codec ID/Info                    : UTF-8 Plain Text
Title                            : Polish
Language                         : Polish
